<svg id="Capa_1" enable-background="new 0 0 512 512" height="512" viewBox="0 0 512 512" width="512" xmlns="http://www.w3.org/2000/svg"><g><path d="m15 160h100c8.284 0 15-6.716 15-15v-20c0-19.05-9.738-35.864-24.494-45.738 5.964-8.233 9.494-18.34 9.494-29.262 0-27.57-22.43-50-50-50s-50 22.43-50 50c0 10.922 3.53 21.029 9.494 29.262-14.756 9.874-24.494 26.688-24.494 45.738v20c0 8.284 6.716 15 15 15zm85-30h-70v-5c0-13.785 11.215-25 25-25h20c13.785 0 25 11.215 25 25zm-35-100c11.028 0 20 8.972 20 20s-8.972 20-20 20-20-8.972-20-20 8.972-20 20-20z"/><path d="m296.506 255.261c5.965-8.233 9.494-18.341 9.494-29.262 0-27.57-22.43-50-50-50s-50 22.43-50 50c0 10.922 3.53 21.029 9.494 29.262-14.756 9.874-24.494 26.688-24.494 45.738v20c0 8.284 6.716 15 15 15h100c8.284 0 15-6.716 15-15v-20c0-19.05-9.738-35.864-24.494-45.738zm-40.506-49.262c11.028 0 20 8.972 20 20s-8.972 20-20 20-20-8.972-20-20 8.972-20 20-20zm35 100h-70v-5c0-13.785 11.215-25 25-25h20c13.785 0 25 11.215 25 25z"/><path d="m487.506 79.262c5.964-8.233 9.494-18.34 9.494-29.262 0-27.57-22.43-50-50-50s-50 22.43-50 50c0 10.922 3.53 21.029 9.494 29.262-14.756 9.874-24.494 26.688-24.494 45.738v20c0 8.284 6.716 15 15 15h100c8.284 0 15-6.716 15-15v-20c0-19.05-9.738-35.864-24.494-45.738zm-40.506-49.262c11.028 0 20 8.972 20 20s-8.972 20-20 20-20-8.972-20-20 8.972-20 20-20zm35 100h-70v-5c0-13.785 11.215-25 25-25h20c13.785 0 25 11.215 25 25z"/><path d="m487.506 431.262c5.964-8.233 9.494-18.34 9.494-29.262 0-27.57-22.43-50-50-50s-50 22.43-50 50c0 10.922 3.53 21.029 9.494 29.262-14.756 9.874-24.494 26.688-24.494 45.738v20c0 8.284 6.716 15 15 15h100c8.284 0 15-6.716 15-15v-20c0-19.05-9.738-35.864-24.494-45.738zm-40.506-49.262c11.028 0 20 8.972 20 20s-8.972 20-20 20-20-8.972-20-20 8.972-20 20-20zm35 100h-70v-5c0-13.785 11.215-25 25-25h20c13.785 0 25 11.215 25 25z"/><path d="m256 115.998c-77.196 0-140 62.804-140 140 0 22.213 5.209 43.229 14.455 61.906l-117.275 117.274c-17.544 17.545-17.544 46.094 0 63.639 8.499 8.499 19.798 13.181 31.815 13.183h.006c12.018 0 23.315-4.68 31.813-13.178l117.28-117.28c18.676 9.247 39.692 14.455 61.905 14.455 77.196 0 140-62.804 140-140s-62.803-139.999-139.999-139.999zm-200.398 361.611c-2.832 2.831-6.596 4.391-10.6 4.391 0 0-.001 0-.002 0-4.006 0-7.773-1.562-10.606-4.396-5.849-5.849-5.849-15.365 0-21.213l112.624-112.624c6.296 7.803 13.411 14.917 21.213 21.213zm200.398-111.611c-60.654 0-110-49.346-110-110s49.346-110 110-110 110 49.346 110 110-49.346 110-110 110z"/></g></svg>